P1
# CREATOR: GIMP PNM Filter Version 1.1
64 64
0000000000000000000000000000000000000000000000000000000000000000000000
0000000000000000000000000000000000000000000000000000000000000000000000
0000000000000000000000000000000000000000000000000000000000000000000000
0000000000000000000000000000000000000000000000000000000000000000000000
0000000000000000000000000000000000000000000000000000000000000000000000
0000000000000000000000000000000000000000000000000000000000000000000000
0000000000000000000000000000000000000000000000000000000000000000000000
0000000000000000000000000000000000000000000000000000000000000000000000
0000000000000000000000000000000000000000000000000000000000000000000000
0000000000000000000000000000000000000000000000000000000000000000000000
0000000000000000000000000000000000000000000000000000000000000000000000
0000000000000000000000000000000000000000000000000000000000000000000000
0000000000000000000000000000000000000000000000000000000000000000000000
0000000000000000000000000000000000000000000000000000000000000000000000
0000000000000000000000000000000000000000000000000000000000000110000000
0000000000000000000000000000000000000000000000000000001110000000000000
0000111000000000000000000000000000000000000000011111000000000000001111
1100000000000000000000000000000000000000111111000000000000111111110000
0000000000000000000000000000000000011111100000000001111111111000000000
0000000000000000000000000000001111101111111011111111111000000000000000
0000000000000000000000000111111011111111111111100000000000000000000000
0000000000000000000011011110111111111110000000000000000000000000000000
0000000000000111111111101111111000000000000000011000000000000000000000
0000001111111111110011111000000000000001111100000000000000000000000000
1100111111100001111000000000000111111100000000000000000000000001100011
1111100001111000000000011111111100000000000000000000000001100011111111
0011111100000001111111111100000000000000000000000011110111111111111111
1100000111111111111110000000000000000000000001111111111111111111110000
1111111111111110000000000000000000000001111111111111111111111001111111
1111111110000000000000000000000000111111111111111101111001111111111111
1110000000000000000000001001111111111111111111111000111111111111111000
0000000000000000010111011111111111111111111111111111111111110000000000
0000000000111111111111111111111111101111101111111110000000000000000000
0000011111111111111111111111111111111111110000000000000000000000000011
1111111111111111111111111111111101000000000000000000000000000001011111
1111111111111111111111101110000000000000000000000000000000000111111111
1111111111111111111111000000000000000000000000000000000111111111111111
1111111101111111100000000000000000000000000000000111111111111111111111
1001111110000000000000000000000000000000000111111111111111111111011111
1000000000000000000000000000000000001111111111111111111111011111000000
0000000000000000000000000000001111111111111111111111011100000000000000
0000000000000000000000011111111111111111111111101110000000000000000000
0000000000000000011111111111111111111111111111000000000000000000000000
0000000000011111111111111111111111100100000000000000000000000000000000
0000011111111111111111111111100000000000000000000000000000000000000000
1111111111111111111111100000000000000000000000000000000000000000011111
1111111111111111000000000000000000000000000000000000000001110111000000
0111111110000000000000000000000000000000000000000011111100000000000100
0001000000000000000000000000000000000000000001110000000000000011111110
0000000000000000000000000000000000000000000000000000000001001010000000
0000000000000000000000000000000000000000000000000000000000000000000000
0000000000000000000000000000000000000000000000000000000000000000000000
0000000000000000000000000000000000000000000000000000000000000000000000
0000000000000000000000000000000000000000000000000000000000000000000000
0000000000000000000000000000000000000000000000000000000000000000000000
0000000000000000000000000000000000000000000000000000000000000000000000
0000000000000000000000000000000000000000000000000000000000000000000000
0000000000000000000000000000000000000000000000000000000000000000000000
000000000000000000000000000000000000